HIERARCHY
ROOT HipCenter
{
    OFFSET 0.0 0.0 -0.0
    CHANNELS 6 Xposition Yposition Zposition Zrotation Xrotation Yrotation
    JOINT Spine
    {
        OFFSET 0.0 12.100537300109863 0.0
        CHANNELS 3 Zrotation Xrotation Yrotation
        JOINT ShoulderCenter
        {
            OFFSET 0.0 33.47124099731445 0.0
            CHANNELS 3 Zrotation Xrotation Yrotation
            JOINT LeftShoulder
            {
                OFFSET 19.03068733215332 0.0 0.0
                CHANNELS 3 Zrotation Xrotation Yrotation
                JOINT LeftElbow
                {
                    OFFSET 29.755142211914062 0.0 0.0
                    CHANNELS 3 Zrotation Xrotation Yrotation
                    JOINT LeftWrist
                    {
                        OFFSET 29.606863021850586 0.0 0.0
                        CHANNELS 3 Zrotation Xrotation Yrotation
                        JOINT LeftHand
                        {
                            OFFSET 4.407874584197998 0.0 0.0
                            CHANNELS 3 Zrotation Xrotation Yrotation
                            End Site
                            {
                                OFFSET 1.7631494998931885 0.0 0.0
                            }
                        }
                    }
                }
            }
            JOINT RightShoulder
            {
                OFFSET -19.03068733215332 0.0 0.0
                CHANNELS 3 Zrotation Xrotation Yrotation
                JOINT RightElbow
                {
                    OFFSET -29.755142211914062 0.0 0.0
                    CHANNELS 3 Zrotation Xrotation Yrotation
                    JOINT RightWrist
                    {
                        OFFSET -29.606863021850586 0.0 0.0
                        CHANNELS 3 Zrotation Xrotation Yrotation
                        JOINT RightHand
                        {
                            OFFSET -4.407874584197998 0.0 0.0
                            CHANNELS 3 Zrotation Xrotation Yrotation
                            End Site
                            {
                                OFFSET -1.7631494998931885 0.0 0.0
                            }
                        }
                    }
                }
            }
            End Site
            {
                OFFSET 0.0 13.388495445251465 0.0
            }
        }
    }
    JOINT LeftHip
    {
        OFFSET 13.975658416748047 0.0 0.0
        CHANNELS 3 Zrotation Xrotation Yrotation
        JOINT LeftKnee
        {
            OFFSET 0.0 -40.64470291137695 0.0
            CHANNELS 3 Zrotation Xrotation Yrotation
            JOINT LeftAnkle
            {
                OFFSET 0.0 -44.77565383911133 0.0
                CHANNELS 3 Zrotation Xrotation Yrotation
                JOINT LeftFoot
                {
                    OFFSET 0.0 -10.065956115722656 0.0
                    CHANNELS 3 Zrotation Xrotation Yrotation
                    End Site
                    {
                        OFFSET 0.0 0.0 4.0263824462890625
                    }
                }
            }
        }
    }
    JOINT RightHip
    {
        OFFSET -13.975658416748047 0.0 0.0
        CHANNELS 3 Zrotation Xrotation Yrotation
        JOINT RightKnee
        {
            OFFSET 0.0 -40.64470291137695 0.0
            CHANNELS 3 Zrotation Xrotation Yrotation
            JOINT RightAnkle
            {
                OFFSET 0.0 -44.77565383911133 0.0
                CHANNELS 3 Zrotation Xrotation Yrotation
                JOINT RightFoot
                {
                    OFFSET 0.0 -10.065956115722656 0.0
                    CHANNELS 3 Zrotation Xrotation Yrotation
                    End Site
                    {
                        OFFSET 0.0 0.0 4.0263824462890625
                    }
                }
            }
        }
    }
}
MOTION
Frames: 9
Frame Time: 0.03333333333333333
66.39999389648438 -19.600000381469727 89.70000457763672 144.7437010584178 -54.066277347750486 138.93459237376737 9.309969024175489 14.945605629683815 -2.663170584425595 2.763592080940801e-06 3.595337426161487e-06 -19.533302611622812 -161.91503303019695 19.02793630464231 -143.53955751161354 8.422600788685482e-07 5.542077314862829e-06 33.940073514370184 -179.99999675923934 61.84480436137458 -160.28776948291292 -6.3611093629270335e-15 6.3611093629270335e-15 -6.3611093629270335e-15 -178.05596783551772 3.0106274337775236 -148.7758389163277 1.3082893782211707e-06 2.5939881511084315e-07 -31.64382965989776 -4.935134901478573e-06 -61.388212352928804 -66.67557775865411 -1.987846675914698e-16 -7.629506003465606e-33 4.398110770461269e-15 -5.6784470795658555 -3.26244079843897 -42.10835615462062 -14.023874335150852 9.193570521151814 -4.274355957774362 58.79117614164304 -12.793418053411251 62.836025178402075 7.951386703658792e-16 3.1805546814635168e-15 -3.1805546814635168e-15 135.66100022956618 -88.11816872702656 86.09912264728456 -18.362498390031327 15.57130948714669 17.788652157833994 55.91758282846921 -49.965954498073124 6.363229396387576 0.0 -6.3611093629270335e-15 0.0
65.9000015258789 -25.5 92.0 149.7967565199166 -50.18561762621172 146.53512945259504 9.09037595170352 16.423807539933023 -2.5631864214130102 1.9588788607719227e-06 2.8541241334188007e-06 -19.80303246524752 -148.65400992616324 3.058114205439558 -159.56103697757172 -1.1339462070232511e-06 -1.2240386638439053e-06 32.449150093207614 179.99999321763767 62.13783243183786 -159.66773989736114 0.0 3.1805546814635168e-15 0.0 -173.7899279967577 -1.828249290610696 -156.304115365278 5.993062998869033e-06 6.567002722940129e-06 -31.473506954205288 1.5718570189100892e-05 -83.52158835959459 -59.544947521567835 0.0 0.0 8.448348372637467e-16 -2.7817975668047934 -9.623218197049118 -39.405795860396445 -4.061559042286515 4.530371127928438 -3.7876610469237093 71.91355802465142 -27.101165967828756 131.18409892441989 1.5902773407317584e-15 8.827812596100317e-32 6.3611093629270335e-15 165.5001265255845 -86.63604430253376 114.06063753661077 -22.88896568179936 15.467828355476552 20.35479058565405 58.740731175142166 -49.741719278412994 5.541205785265065 0.0 -6.3611093629270335e-15 0.0
65.5 -32.30000305175781 94.0999984741211 156.32947203120628 -48.471303828186564 154.3445219580573 11.79542363609468 15.758658548317689 -2.9878618166373285 7.289510304727871e-08 -3.2690292767139012e-06 -17.486900554996573 -149.86008466848452 -2.3622002419084804 -171.18542562800945 2.8345968455948096e-06 4.567465886332846e-06 31.109996241707844 179.99999215870898 50.02134794560491 -157.5631471828211 4.4139062980501586e-32 7.951386703658792e-16 -6.3611093629270335e-15 -173.3800244279391 13.1729918192537 -165.22477084758734 -9.37385209850814e-07 -5.2633693881461655e-06 -22.07416029328075 -8.453656695176218e-06 -83.339642394804 -51.96689451700754 -3.1805546814635168e-15 0.0 0.0 2.336989689914111 -26.904166292656107 -24.639802900349842 -4.5740886589724505 14.846218380293617 -18.141319287832168 99.14472668758964 -44.44892325305302 156.96597541901951 0.0 0.0 -3.1805546814635164e-15 172.52907077936 -84.3716980050936 120.3536888881954 -25.336604735093218 16.61772650310325 22.741334792099714 62.513427681649425 -52.1911936496018 8.077142128740402 0.0 -1.5902773407317582e-15 0.0
65.0 -39.599998474121094 96.20000457763672 160.7099436511544 -45.416578372645404 160.14784325659932 11.52144376269728 15.89642588263962 -3.049058990922152 -1.4609752259560714e-06 -3.2112052471619323e-06 -7.9601006258597415 -151.3332073664256 1.211660893192632 -176.2512405243319 1.3973679289007336e-06 8.913745384652153e-06 29.120568839171348 -179.99999829402472 38.285613119633005 -147.7211634545753 1.5902773407317584e-15 0.0 0.0 -170.0163643881212 19.268044727513054 -161.69015989023467 1.5425506393963695e-06 8.222602982691908e-06 -18.346289285929583 -2.2072186862805473e-05 -85.8073464959577 -59.15423296769749 3.1805546814635168e-15 0.0 0.0 3.4856768213691445 -42.586474015486914 -0.0688987239008655 6.692848081792611 23.48273667402199 -44.226775581182714 128.09438235341793 -54.36956862334114 -174.97302483394444 1.590277340731758e-15 1.590277340731758e-15 3.180554681463516e-15 177.1561043538922 -82.85767557597065 125.00573695506947 -27.91197188427384 16.818330144282008 24.849439332772185 67.16238674112348 -51.437857211464376 10.144584036913812 -6.3611093629270335e-15 1.7655625192200634e-31 -3.1805546814635168e-15
64.5 -47.0 97.69999694824219 163.3007448283732 -46.49534066532991 167.46042931696118 14.532487853276226 15.87324727015366 -3.8758416591219973 -1.597096722773799e-06 -3.4028465981839456e-06 -4.181130473726857 -121.7567830492708 -56.061273107884645 -150.96292397758504 2.5384289681517508e-06 -3.4076401761066406e-07 23.43784902019689 -179.99999905576416 -35.03996795460637 -169.5014750875491 1.5902773407317584e-15 -7.951386703658792e-16 8.945310041616142e-16 -168.43791455027397 23.071530366196026 -159.53786844284207 -2.634566727526568e-06 -1.0879116728704993e-06 -15.813437831608944 -179.99999747101697 -83.11086369480762 123.43424923501657 -6.361109362927033e-15 -3.9756933518293955e-16 -2.2069531490250793e-32 -1.6011551894982916 -60.17834384959658 17.529913337645567 21.54026621008317 20.760724803502583 -56.91288210341422 161.05539589266937 -65.06578598004312 -136.09057579588782 7.951386703658791e-16 1.1034765745125397e-32 1.5902773407317582e-15 -162.30434785067507 -76.08130892721287 141.64533151330488 -32.200956314336125 15.123674953480561 27.13089291757212 68.09023871578289 -45.87414014140478 6.2998020896046025 6.3611093629270335e-15 -6.3611093629270335e-15 3.531125038440127e-31
64.60000610351562 -53.39999771118164 99.5 156.11345579454903 -50.83929139141533 164.0570587265521 10.68939215812956 17.84636197452487 -5.159618377311558 -1.7824813872905433e-06 -1.7837183725487872e-07 6.122906985577883 -138.89553568960585 -18.13488655528287 -153.25967333680222 6.890458356730692e-07 6.5507107281317015e-06 24.26404712702433 179.9999989228525 -48.509748239683006 -164.96111556010462 3.1805546814635168e-15 -2.2069531490250793e-32 -7.951386703658792e-16 -165.1259406294716 28.91939494543002 -155.68082707822003 -1.3127273115352603e-06 -5.722869502004553e-06 -15.520728653567495 -179.99999265310632 -76.47306396169132 124.00727793822263 3.1805546814635168e-15 3.9756933518293955e-16 -1.5902773407317584e-15 -33.80349456366607 -81.54270340756432 10.63163254747854 33.9285898639161 12.054193374273316 -41.2786532891154 -124.42830365195174 -53.32728426580569 -46.12783670891695 3.975693351829395e-15 -7.951386703658794e-16 -7.95138670365879e-15 -170.06468600958482 -65.3228954546341 136.66059950352417 -34.186377758267824 13.104819230769408 21.21538994745971 69.72451956479954 -35.41698961695229 7.307876039210655 3.180554681463516e-15 0.0 0.0
65.10000610351562 -57.79999923706055 101.19999694824219 146.79339760291177 -57.20004399453358 152.4583433979451 4.705287465350199 19.04288140190175 -3.926336540346371 -1.0005612287504087e-06 -1.6499241406983672e-06 9.647152336202534 -138.77568182465475 -12.030419010682133 -153.68323769137808 -6.17727585195679e-08 2.5669123091460556e-06 24.771601611203966 -179.99998102914174 -78.31400780172535 -168.27567045327467 0.0 0.0 4.770832022195275e-15 -158.10540951927265 41.422411123869054 -162.7634889474638 1.2540345672963846e-07 8.61308928067748e-06 -13.228972794704573 -0.0006017394587144172 -89.56671487204892 -57.633926127024004 4.4139062980501586e-32 6.3611093629270335e-15 -7.951386703658792e-16 178.69714182541202 -73.7928967946925 -123.56538405528987 41.1264943955092 3.951198180283022 -13.279034082494507 -105.53679057677672 -12.989881004146064 -8.079320195872349 1.5902773407317584e-15 3.310429723537619e-32 2.3854160110976376e-15 -176.65561440949415 -50.413137782139174 129.94503582583388 -35.589172803698546 17.27483692949004 22.067927190333197 60.959953500429506 -34.01399196837285 5.962446150897772 2.648343778830095e-31 -9.54166404439055e-15 3.1805546814635168e-15
65.69999694824219 -60.900001525878906 101.90000915527344 139.28918919906073 -62.069152327440776 143.60360670396167 3.501048484563559 19.480184763911133 -2.173004276926179 6.92721123387807e-07 -8.310882619858586e-07 9.664284600835405 -139.40293410070458 -9.63771811766195 -155.94286091941177 3.4992110940773113e-06 -5.655403374049685e-06 23.411983785648385 6.256238482574761e-06 -69.00619583886223 18.372621075244208 -1.5902773407317584e-15 -6.3611093629270335e-15 1.5902773407317584e-15 -154.51801621428376 39.685680989960865 -167.25437522919742 1.4651459448383572e-06 -7.480883205357413e-07 -14.26075286854721 179.9998732924873 -88.69744400247104 124.40620348819995 -3.1805546814635168e-15 6.3611093629270335e-15 -7.95138670365879e-16 172.33728883107673 -56.40245234023246 -127.31372522665883 44.209698732628105 -0.5901286381909542 1.5570985124355963 -102.14130659223274 5.990691060876866 3.862726932219828 -2.7829853462805768e-15 7.951386703658791e-16 -1.5902773407317582e-15 -172.6619657708843 -39.3201691699305 127.64799679860481 -36.680701989795075 20.574629616672468 22.98239434942114 52.97086771335694 -37.22705738624706 4.152303801724992 0.0 -9.541664044390553e-15 0.0
66.5 -62.69999694824219 102.30000305175781 134.99999726741942 -62.73065998763896 140.7179217494745 3.1537771220080653 20.731171464992677 -1.5323972605242702 -1.37596692983864e-06 2.581828738324676e-06 6.799495661805088 -143.13379841399674 -4.4480880649782915 -156.497924525562 1.5458884641958175e-06 -1.7763603324693763e-06 23.36201537374535 179.99989645699065 -87.17667518011858 -167.23590425283155 3.1805546814635168e-15 3.1805546814635168e-15 7.951386703658791e-16 -155.01881902687285 37.66170594697501 -168.48918942927693 1.2066179101553481e-06 -4.3180610477105065e-06 -14.60787169101672 -2.9605629007954486e-05 -88.86883486060923 -49.32729990988423 0.0 0.0 3.975693351829397e-16 171.3316104041454 -47.933116275811315 -127.83414182548884 44.664930534934115 -2.9347612053386083 6.5576461298013085 -100.34336262029002 8.157745136219384 5.574027478590295 3.975693351829396e-16 -4.138037154422024e-33 -1.1927080055488188e-15 -167.25689090146943 -35.64895061852025 128.47005899086838 -39.891461056517755 19.697532644152236 25.294798695947318 61.34447022813419 -40.36062977916586 7.375386764582712 0.0 0.0 0.0
